<svg width="328" height="116" viewBox="0 0 328 116" fill="none" xmlns="http://www.w3.org/2000/svg">
<path d="M4.4375 44.25C3.0625 44.25 1.97917 43.8958 1.1875 43.1875C0.395833 42.4792 0 41.4167 0 40C0 39.375 0.0416667 38.75 0.125 38.125C0.208333 37.4583 0.354167 36.5833 0.5625 35.5C0.8125 34.4167 1.1875 32.9167 1.6875 31L7.875 7L3.375 6.375L4.0625 3.375L18.5 0L20.3125 1.25C19.4375 4.25 18.6875 6.85417 18.0625 9.0625C17.4375 11.2708 16.9375 13.0208 16.5625 14.3125L12.125 30.3125C11.7917 31.5208 11.5208 32.5833 11.3125 33.5C11.1042 34.375 10.9583 35.1458 10.875 35.8125C10.7917 36.4375 10.75 36.9583 10.75 37.375C11.4583 36.875 12.2083 36.2083 13 35.375C13.8333 34.5417 14.6667 33.6042 15.5 32.5625L17.75 35.0625C16.7083 36.6042 15.4375 38.0833 13.9375 39.5C12.4375 40.9167 10.8542 42.0625 9.1875 42.9375C7.5625 43.8125 5.97917 44.25 4.4375 44.25ZM32.7325 44.25C29.1075 44.25 26.295 43.3333 24.295 41.5C22.3367 39.6667 21.3575 37.2083 21.3575 34.125C21.3575 31.5 21.8367 29.0625 22.795 26.8125C23.795 24.5208 25.1283 22.5208 26.795 20.8125C28.4617 19.1042 30.3575 17.7708 32.4825 16.8125C34.6492 15.8542 36.8992 15.375 39.2325 15.375C41.9408 15.375 43.9825 15.8958 45.3575 16.9375C46.7742 17.9375 47.4825 19.2917 47.4825 21C47.4825 21.7083 47.3158 22.5 46.9825 23.375C46.6492 24.25 45.9408 25.2083 44.8575 26.25C43.8158 27.25 42.1908 28.3542 39.9825 29.5625C37.7742 30.7292 34.795 32 31.045 33.375V29.625C33.1283 28.7083 34.6492 27.7917 35.6075 26.875C36.6075 25.9583 37.2533 25.0208 37.545 24.0625C37.8367 23.1042 37.9825 22.1667 37.9825 21.25C37.9825 20.5833 37.8367 20.1042 37.545 19.8125C37.295 19.4792 36.9825 19.3125 36.6075 19.3125C35.9825 19.3125 35.295 19.8333 34.545 20.875C33.8367 21.9167 33.2325 23.3958 32.7325 25.3125C32.2325 27.2292 31.9825 29.5 31.9825 32.125C31.9825 33.9167 32.3367 35.2083 33.045 36C33.7533 36.75 34.6908 37.125 35.8575 37.125C36.9408 37.125 38.2742 36.8333 39.8575 36.25C41.4408 35.625 42.9617 34.5208 44.42 32.9375L46.6075 36.25C44.4408 39.1667 42.0658 41.2292 39.4825 42.4375C36.9408 43.6458 34.6908 44.25 32.7325 44.25ZM81.51 20.4375C80.4683 20.4375 79.5725 21.0208 78.8225 22.1875C78.0725 23.3542 77.4892 24.8333 77.0725 26.625C76.6975 28.4167 76.5308 30.25 76.5725 32.125C76.6142 33.9167 76.9683 35.1667 77.635 35.875C78.3017 36.5833 79.1975 36.9375 80.3225 36.9375C81.4475 36.9375 82.7183 36.625 84.135 36C85.5933 35.375 87.0308 34.3542 88.4475 32.9375L90.635 36.25C88.4683 39.1667 86.0933 41.2292 83.51 42.4375C80.9267 43.6458 78.6142 44.25 76.5725 44.25C74.5725 44.25 72.7392 43.8333 71.0725 43C69.4475 42.1667 68.135 41 67.135 39.5C66.135 37.9583 65.635 36.1667 65.635 34.125C65.635 31.7917 66.0933 29.5208 67.01 27.3125C67.9267 25.0625 69.1975 23.0417 70.8225 21.25C72.4475 19.4583 74.3642 18.0417 76.5725 17C78.7808 15.9167 81.1767 15.375 83.76 15.375C86.0933 15.375 87.9475 15.8958 89.3225 16.9375C90.7392 17.9375 91.4475 19.375 91.4475 21.25C91.4475 22.1667 91.26 23.0625 90.885 23.9375C90.5517 24.7708 90.1142 25.5417 89.5725 26.25C88.4058 24.4583 87.0308 23.0417 85.4475 22C83.8642 20.9583 82.5517 20.4375 81.51 20.4375ZM107.305 15.375C108.638 15.375 109.68 15.7083 110.43 16.375C111.222 17 111.618 18.1042 111.618 19.6875C111.618 20.3542 111.472 21.25 111.18 22.375C110.888 23.5 110.513 24.7292 110.055 26.0625C109.638 27.3542 109.201 28.6458 108.743 29.9375C108.326 31.1875 107.972 32.3125 107.68 33.3125C107.388 34.3125 107.243 35.0625 107.243 35.5625C107.243 35.9375 107.326 36.2292 107.493 36.4375C107.659 36.6042 107.888 36.6875 108.18 36.6875C108.722 36.6875 109.388 36.3333 110.18 35.625C110.972 34.9167 111.826 33.9375 112.743 32.6875C113.701 31.3958 114.638 29.8958 115.555 28.1875C116.513 26.4375 117.409 24.5208 118.243 22.4375C119.118 20.3542 119.868 18.1667 120.493 15.875H130.43C129.93 17.375 129.368 19.1667 128.743 21.25C128.159 23.2917 127.576 25.375 126.993 27.5C126.409 29.625 125.93 31.5833 125.555 33.375C125.18 35.125 124.993 36.4583 124.993 37.375C125.743 36.875 126.513 36.2083 127.305 35.375C128.138 34.5417 128.972 33.6042 129.805 32.5625L132.118 35.0625C131.076 36.6042 129.784 38.0833 128.243 39.5C126.743 40.9167 125.159 42.0625 123.493 42.9375C121.826 43.8125 120.201 44.25 118.618 44.25C117.493 44.25 116.597 43.9375 115.93 43.3125C115.263 42.6458 114.93 41.7292 114.93 40.5625C114.93 39.9375 115.076 38.9167 115.368 37.5C115.659 36.0833 116.097 34.3542 116.68 32.3125C117.305 30.2292 118.076 27.9375 118.993 25.4375H119.305C118.305 28.8125 117.118 31.7083 115.743 34.125C114.409 36.5 112.951 38.4375 111.368 39.9375C109.784 41.3958 108.18 42.4792 106.555 43.1875C104.972 43.8958 103.451 44.25 101.993 44.25C100.326 44.25 98.9717 43.875 97.93 43.125C96.93 42.375 96.43 41.1667 96.43 39.5C96.43 38.7917 96.5758 37.875 96.8675 36.75C97.2008 35.5833 97.5758 34.3125 97.9925 32.9375C98.4508 31.5625 98.8883 30.1875 99.305 28.8125C99.7633 27.3958 100.138 26.125 100.43 25C100.763 23.8333 100.93 22.9167 100.93 22.25C100.138 22.75 99.3467 23.4167 98.555 24.25C97.805 25.0833 97.0133 26.1042 96.18 27.3125L93.8675 24.5625C94.9092 23.0208 96.18 21.5625 97.68 20.1875C99.2217 18.7708 100.826 17.625 102.493 16.75C104.159 15.8333 105.763 15.375 107.305 15.375ZM157.225 23.8125C156.475 23.8125 155.746 24.0833 155.038 24.625C154.329 25.125 153.621 25.9167 152.913 27C152.246 28.0417 151.538 29.375 150.788 31C149.871 33.0417 149.017 35.1875 148.225 37.4375C147.433 39.6875 146.788 41.7917 146.288 43.75H135.663C136.163 42.3333 136.725 40.6042 137.35 38.5625C137.975 36.5208 138.579 34.4375 139.163 32.3125C139.788 30.1458 140.288 28.1667 140.663 26.375C141.038 24.5417 141.225 23.1667 141.225 22.25C140.475 22.75 139.704 23.4167 138.913 24.25C138.121 25.0833 137.308 26.1042 136.475 27.3125L134.163 24.5625C135.204 23.0208 136.475 21.5625 137.975 20.1875C139.475 18.7708 141.058 17.625 142.725 16.75C144.392 15.8333 145.975 15.375 147.475 15.375C148.517 15.375 149.288 15.6667 149.788 16.25C150.329 16.8333 150.6 17.6667 150.6 18.75C150.6 19.375 150.433 20.5833 150.1 22.375C149.808 24.1667 149.329 26.2917 148.663 28.75C147.996 31.2083 147.1 33.7917 145.975 36.5H145.725C146.517 34.375 147.371 32.1042 148.288 29.6875C149.246 27.2708 150.288 24.9792 151.413 22.8125C152.538 20.6042 153.788 18.8125 155.163 17.4375C156.579 16.0625 158.142 15.375 159.85 15.375C161.1 15.375 162.038 15.7292 162.663 16.4375C163.329 17.1458 163.663 18.1458 163.663 19.4375C163.663 20.4375 163.413 21.5417 162.913 22.75C162.454 23.9167 161.788 24.9167 160.913 25.75C160.371 25.1667 159.746 24.7083 159.038 24.375C158.371 24 157.767 23.8125 157.225 23.8125ZM171.02 44.25C168.978 44.25 167.312 43.5417 166.02 42.125C164.728 40.6667 164.083 38.8333 164.083 36.625C164.083 33.6667 164.666 30.8958 165.833 28.3125C166.999 25.7292 168.541 23.4792 170.458 21.5625C172.374 19.6042 174.458 18.0833 176.708 17C178.999 15.875 181.249 15.3125 183.458 15.3125C184.874 15.3125 186.083 15.7292 187.083 16.5625C188.124 17.3542 189.145 18.4792 190.145 19.9375L187.333 21.875C186.708 21.375 186.02 21 185.27 20.75C184.52 20.4583 183.749 20.3125 182.958 20.3125C181.791 20.3125 180.708 20.6458 179.708 21.3125C178.749 21.9792 177.895 22.9375 177.145 24.1875C176.437 25.3958 175.895 26.8542 175.52 28.5625C175.145 30.2292 174.958 32.0833 174.958 34.125C174.958 34.9167 175.062 35.5417 175.27 36C175.478 36.4583 175.791 36.6875 176.208 36.6875C176.583 36.6875 177.228 36.1458 178.145 35.0625C179.062 33.9375 180.083 32.4792 181.208 30.6875C182.333 28.8542 183.416 26.8542 184.458 24.6875C185.541 22.5208 186.395 20.3542 187.02 18.1875L188.333 17.875L190.395 15.875H197.708C196.958 18.0833 196.228 20.3125 195.52 22.5625C194.853 24.7708 194.27 26.875 193.77 28.875C193.27 30.875 192.874 32.625 192.583 34.125C192.291 35.5833 192.145 36.6667 192.145 37.375C192.853 36.875 193.603 36.2083 194.395 35.375C195.228 34.5417 196.062 33.6042 196.895 32.5625L199.145 35.0625C198.103 36.6042 196.833 38.0833 195.333 39.5C193.833 40.9167 192.249 42.0625 190.583 42.9375C188.958 43.8125 187.374 44.25 185.833 44.25C184.666 44.25 183.749 43.9167 183.083 43.25C182.416 42.5833 182.083 41.6667 182.083 40.5C182.083 39.7917 182.228 38.7917 182.52 37.5C182.812 36.1667 183.249 34.5 183.833 32.5C184.416 30.5 185.145 28.1458 186.02 25.4375H186.395C185.145 29.3542 183.708 32.7292 182.083 35.5625C180.499 38.3542 178.77 40.5 176.895 42C175.062 43.5 173.103 44.25 171.02 44.25ZM224.19 35.0625C222.19 37.8542 219.961 40.0833 217.503 41.75C215.044 43.4167 212.357 44.25 209.44 44.25C207.523 44.25 206.065 43.8333 205.065 43C204.107 42.125 203.628 40.8542 203.628 39.1875C203.628 38.7292 203.669 38.1667 203.753 37.5C203.878 36.8333 204.023 36.1667 204.19 35.5L208.065 20.5H203.69L204.19 18.25L218.69 8.8125H220.94L218.44 18.75L214.815 33.25C214.648 34.0417 214.523 34.6042 214.44 34.9375C214.357 35.2708 214.315 35.5417 214.315 35.75C214.315 36.5 214.732 36.875 215.565 36.875C216.398 36.875 217.294 36.5417 218.253 35.875C219.253 35.1667 220.503 33.7917 222.003 31.75L224.19 35.0625ZM215.315 20.5L216.19 16H226.128L225.19 20.5H215.315ZM239.61 44.25C235.985 44.25 233.173 43.3333 231.173 41.5C229.214 39.6667 228.235 37.2083 228.235 34.125C228.235 31.5 228.714 29.0625 229.673 26.8125C230.673 24.5208 232.006 22.5208 233.673 20.8125C235.339 19.1042 237.235 17.7708 239.36 16.8125C241.527 15.8542 243.777 15.375 246.11 15.375C248.818 15.375 250.86 15.8958 252.235 16.9375C253.652 17.9375 254.36 19.2917 254.36 21C254.36 21.7083 254.193 22.5 253.86 23.375C253.527 24.25 252.818 25.2083 251.735 26.25C250.693 27.25 249.068 28.3542 246.86 29.5625C244.652 30.7292 241.673 32 237.923 33.375V29.625C240.006 28.7083 241.527 27.7917 242.485 26.875C243.485 25.9583 244.131 25.0208 244.423 24.0625C244.714 23.1042 244.86 22.1667 244.86 21.25C244.86 20.5833 244.714 20.1042 244.423 19.8125C244.173 19.4792 243.86 19.3125 243.485 19.3125C242.86 19.3125 242.173 19.8333 241.423 20.875C240.714 21.9167 240.11 23.3958 239.61 25.3125C239.11 27.2292 238.86 29.5 238.86 32.125C238.86 33.9167 239.214 35.2083 239.923 36C240.631 36.75 241.568 37.125 242.735 37.125C243.818 37.125 245.152 36.8333 246.735 36.25C248.318 35.625 249.839 34.5208 251.298 32.9375L253.485 36.25C251.318 39.1667 248.943 41.2292 246.36 42.4375C243.818 43.6458 241.568 44.25 239.61 44.25ZM270.717 15.375C272.051 15.375 273.092 15.7083 273.842 16.375C274.634 17 275.03 18.1042 275.03 19.6875C275.03 20.3542 274.884 21.25 274.592 22.375C274.301 23.5 273.926 24.7292 273.467 26.0625C273.051 27.3542 272.613 28.6458 272.155 29.9375C271.738 31.1875 271.384 32.3125 271.092 33.3125C270.801 34.3125 270.655 35.0625 270.655 35.5625C270.655 35.9375 270.738 36.2292 270.905 36.4375C271.072 36.6042 271.301 36.6875 271.592 36.6875C272.134 36.6875 272.801 36.3333 273.592 35.625C274.384 34.9167 275.238 33.9375 276.155 32.6875C277.113 31.3958 278.051 29.8958 278.967 28.1875C279.926 26.4375 280.822 24.5208 281.655 22.4375C282.53 20.3542 283.28 18.1667 283.905 15.875H293.842C293.342 17.375 292.78 19.1667 292.155 21.25C291.572 23.2917 290.988 25.375 290.405 27.5C289.822 29.625 289.342 31.5833 288.967 33.375C288.592 35.125 288.405 36.4583 288.405 37.375C289.155 36.875 289.926 36.2083 290.717 35.375C291.551 34.5417 292.384 33.6042 293.217 32.5625L295.53 35.0625C294.488 36.6042 293.197 38.0833 291.655 39.5C290.155 40.9167 288.572 42.0625 286.905 42.9375C285.238 43.8125 283.613 44.25 282.03 44.25C280.905 44.25 280.009 43.9375 279.342 43.3125C278.676 42.6458 278.342 41.7292 278.342 40.5625C278.342 39.9375 278.488 38.9167 278.78 37.5C279.072 36.0833 279.509 34.3542 280.092 32.3125C280.717 30.2292 281.488 27.9375 282.405 25.4375H282.717C281.717 28.8125 280.53 31.7083 279.155 34.125C277.822 36.5 276.363 38.4375 274.78 39.9375C273.197 41.3958 271.592 42.4792 269.967 43.1875C268.384 43.8958 266.863 44.25 265.405 44.25C263.738 44.25 262.384 43.875 261.342 43.125C260.342 42.375 259.842 41.1667 259.842 39.5C259.842 38.7917 259.988 37.875 260.28 36.75C260.613 35.5833 260.988 34.3125 261.405 32.9375C261.863 31.5625 262.301 30.1875 262.717 28.8125C263.176 27.3958 263.551 26.125 263.842 25C264.176 23.8333 264.342 22.9167 264.342 22.25C263.551 22.75 262.759 23.4167 261.967 24.25C261.217 25.0833 260.426 26.1042 259.592 27.3125L257.28 24.5625C258.322 23.0208 259.592 21.5625 261.092 20.1875C262.634 18.7708 264.238 17.625 265.905 16.75C267.572 15.8333 269.176 15.375 270.717 15.375ZM320.638 23.8125C319.888 23.8125 319.158 24.0833 318.45 24.625C317.742 25.125 317.033 25.9167 316.325 27C315.658 28.0417 314.95 29.375 314.2 31C313.283 33.0417 312.429 35.1875 311.638 37.4375C310.846 39.6875 310.2 41.7917 309.7 43.75H299.075C299.575 42.3333 300.138 40.6042 300.763 38.5625C301.388 36.5208 301.992 34.4375 302.575 32.3125C303.2 30.1458 303.7 28.1667 304.075 26.375C304.45 24.5417 304.638 23.1667 304.638 22.25C303.888 22.75 303.117 23.4167 302.325 24.25C301.533 25.0833 300.721 26.1042 299.888 27.3125L297.575 24.5625C298.617 23.0208 299.888 21.5625 301.388 20.1875C302.888 18.7708 304.471 17.625 306.138 16.75C307.804 15.8333 309.388 15.375 310.888 15.375C311.929 15.375 312.7 15.6667 313.2 16.25C313.742 16.8333 314.013 17.6667 314.013 18.75C314.013 19.375 313.846 20.5833 313.513 22.375C313.221 24.1667 312.742 26.2917 312.075 28.75C311.408 31.2083 310.513 33.7917 309.388 36.5H309.138C309.929 34.375 310.783 32.1042 311.7 29.6875C312.658 27.2708 313.7 24.9792 314.825 22.8125C315.95 20.6042 317.2 18.8125 318.575 17.4375C319.992 16.0625 321.554 15.375 323.263 15.375C324.513 15.375 325.45 15.7292 326.075 16.4375C326.742 17.1458 327.075 18.1458 327.075 19.4375C327.075 20.4375 326.825 21.5417 326.325 22.75C325.867 23.9167 325.2 24.9167 324.325 25.75C323.783 25.1667 323.158 24.7083 322.45 24.375C321.783 24 321.179 23.8125 320.638 23.8125ZM22.7012 115.25C20.6596 115.25 18.9929 114.542 17.7012 113.125C16.4096 111.667 15.7637 109.833 15.7637 107.625C15.7637 104.667 16.3471 101.896 17.5137 99.3125C18.6804 96.7292 20.2221 94.4792 22.1387 92.5625C24.0554 90.6042 26.1387 89.0833 28.3887 88C30.6804 86.875 32.9304 86.3125 35.1387 86.3125C36.4721 86.3125 37.6596 86.7292 38.7012 87.5625C39.7846 88.3542 40.8262 89.4792 41.8262 90.9375L39.0137 92.875C38.3887 92.375 37.7012 92 36.9512 91.75C36.2012 91.4583 35.4304 91.3125 34.6387 91.3125C33.4721 91.3125 32.3887 91.6458 31.3887 92.3125C30.4304 92.9792 29.5762 93.9375 28.8262 95.1875C28.1179 96.3958 27.5762 97.8542 27.2012 99.5625C26.8262 101.229 26.6387 103.083 26.6387 105.125C26.6387 105.917 26.7429 106.542 26.9512 107C27.1596 107.458 27.4721 107.688 27.8887 107.688C28.2637 107.688 28.9096 107.146 29.8262 106.062C30.7429 104.938 31.7637 103.479 32.8887 101.688C34.0137 99.8542 35.0971 97.8542 36.1387 95.6875C37.2221 93.5208 38.0762 91.3542 38.7012 89.1875L38.7637 88.3125L41.2012 78L36.3262 77.375L37.0137 74.375L51.7637 71L53.5762 72.25C53.1596 73.6667 52.7637 75.0208 52.3887 76.3125C52.0137 77.5625 51.6596 78.75 51.3262 79.875C51.0346 80.9583 50.7221 82.0208 50.3887 83.0625L46.3887 96.625C45.4721 99.7083 44.8054 102.229 44.3887 104.188C44.0137 106.146 43.8262 107.542 43.8262 108.375C44.5346 107.875 45.2846 107.208 46.0762 106.375C46.9096 105.542 47.7429 104.604 48.5762 103.562L50.8262 106.062C49.7846 107.604 48.5137 109.083 47.0137 110.5C45.5137 111.917 43.9304 113.062 42.2637 113.938C40.6387 114.812 39.0554 115.25 37.5137 115.25C36.3471 115.25 35.4304 114.917 34.7637 114.25C34.0971 113.583 33.7637 112.667 33.7637 111.5C33.7637 110.792 33.9096 109.792 34.2012 108.5C34.4929 107.167 34.9304 105.5 35.5137 103.5C36.0971 101.5 36.8262 99.1458 37.7012 96.4375H38.0762C36.8262 100.354 35.3887 103.729 33.7637 106.562C32.1804 109.354 30.4512 111.5 28.5762 113C26.7429 114.5 24.7846 115.25 22.7012 115.25ZM59.8712 115.25C58.5379 115.25 57.4754 114.938 56.6837 114.312C55.8921 113.688 55.4962 112.646 55.4962 111.188C55.4962 110.646 55.6629 109.812 55.9962 108.688C56.3712 107.521 56.8087 106.229 57.3087 104.812C57.8087 103.354 58.3087 101.896 58.8087 100.438C59.3087 98.9375 59.7254 97.5625 60.0587 96.3125C60.4337 95.0208 60.6212 94 60.6212 93.25C59.8296 93.75 59.0379 94.4167 58.2462 95.25C57.4962 96.0833 56.7046 97.1042 55.8712 98.3125L53.5587 95.5625C54.6004 94.0208 55.8712 92.5625 57.3712 91.1875C58.9129 89.7708 60.5379 88.625 62.2462 87.75C63.9546 86.8333 65.6004 86.375 67.1837 86.375C68.4337 86.375 69.4337 86.7292 70.1837 87.4375C70.9337 88.1458 71.3087 89.1667 71.3087 90.5C71.3087 91.0417 71.1212 91.9167 70.7462 93.125C70.4129 94.2917 69.9962 95.6458 69.4962 97.1875C68.9962 98.6875 68.4962 100.188 67.9962 101.688C67.4962 103.188 67.0587 104.542 66.6837 105.75C66.3504 106.958 66.1837 107.833 66.1837 108.375C66.9337 107.875 67.7046 107.208 68.4962 106.375C69.3296 105.542 70.1629 104.604 70.9962 103.562L73.3087 106.062C72.2671 107.604 70.9962 109.083 69.4962 110.5C67.9962 111.917 66.3921 113.062 64.6837 113.938C63.0171 114.812 61.4129 115.25 59.8712 115.25ZM68.4337 82.6875C66.4337 82.6875 64.9337 82.1458 63.9337 81.0625C62.9754 79.9375 62.4962 78.5833 62.4962 77C62.4962 76 62.7671 75.0208 63.3087 74.0625C63.8504 73.1042 64.6004 72.3333 65.5587 71.75C66.5587 71.125 67.7046 70.8125 68.9962 70.8125C70.9962 70.8125 72.4754 71.3542 73.4337 72.4375C74.3921 73.4792 74.8712 74.7708 74.8712 76.3125C74.8712 77.2708 74.6004 78.25 74.0587 79.25C73.5587 80.25 72.8296 81.0833 71.8712 81.75C70.9129 82.375 69.7671 82.6875 68.4337 82.6875ZM82.1662 115.25C80.7912 115.25 79.7079 114.896 78.9162 114.188C78.1246 113.479 77.7287 112.417 77.7287 111C77.7287 110.375 77.7704 109.75 77.8537 109.125C77.9371 108.458 78.0829 107.583 78.2912 106.5C78.5412 105.417 78.9162 103.917 79.4162 102L85.6037 78L81.1037 77.375L81.7912 74.375L96.2287 71L98.0412 72.25C97.1662 75.25 96.4162 77.8542 95.7912 80.0625C95.1662 82.2708 94.6662 84.0208 94.2912 85.3125L89.8537 101.312C89.5204 102.521 89.2496 103.583 89.0412 104.5C88.8329 105.375 88.6871 106.146 88.6037 106.812C88.5204 107.438 88.4787 107.958 88.4787 108.375C89.1871 107.875 89.9371 107.208 90.7287 106.375C91.5621 105.542 92.3954 104.604 93.2287 103.562L95.4787 106.062C94.4371 107.604 93.1662 109.083 91.6662 110.5C90.1662 111.917 88.5829 113.062 86.9162 113.938C85.2912 114.812 83.7079 115.25 82.1662 115.25ZM110.461 115.25C106.836 115.25 104.024 114.333 102.024 112.5C100.065 110.667 99.0863 108.208 99.0863 105.125C99.0863 102.5 99.5654 100.062 100.524 97.8125C101.524 95.5208 102.857 93.5208 104.524 91.8125C106.19 90.1042 108.086 88.7708 110.211 87.8125C112.378 86.8542 114.628 86.375 116.961 86.375C119.67 86.375 121.711 86.8958 123.086 87.9375C124.503 88.9375 125.211 90.2917 125.211 92C125.211 92.7083 125.045 93.5 124.711 94.375C124.378 95.25 123.67 96.2083 122.586 97.25C121.545 98.25 119.92 99.3542 117.711 100.562C115.503 101.729 112.524 103 108.774 104.375V100.625C110.857 99.7083 112.378 98.7917 113.336 97.875C114.336 96.9583 114.982 96.0208 115.274 95.0625C115.565 94.1042 115.711 93.1667 115.711 92.25C115.711 91.5833 115.565 91.1042 115.274 90.8125C115.024 90.4792 114.711 90.3125 114.336 90.3125C113.711 90.3125 113.024 90.8333 112.274 91.875C111.565 92.9167 110.961 94.3958 110.461 96.3125C109.961 98.2292 109.711 100.5 109.711 103.125C109.711 104.917 110.065 106.208 110.774 107C111.482 107.75 112.42 108.125 113.586 108.125C114.67 108.125 116.003 107.833 117.586 107.25C119.17 106.625 120.69 105.521 122.149 103.938L124.336 107.25C122.17 110.167 119.795 112.229 117.211 113.438C114.67 114.646 112.42 115.25 110.461 115.25ZM150.506 106.062C148.506 108.854 146.277 111.083 143.819 112.75C141.36 114.417 138.673 115.25 135.756 115.25C133.84 115.25 132.381 114.833 131.381 114C130.423 113.125 129.944 111.854 129.944 110.188C129.944 109.729 129.985 109.167 130.069 108.5C130.194 107.833 130.34 107.167 130.506 106.5L134.381 91.5H130.006L130.506 89.25L145.006 79.8125H147.256L144.756 89.75L141.131 104.25C140.965 105.042 140.84 105.604 140.756 105.938C140.673 106.271 140.631 106.542 140.631 106.75C140.631 107.5 141.048 107.875 141.881 107.875C142.715 107.875 143.61 107.542 144.569 106.875C145.569 106.167 146.819 104.792 148.319 102.75L150.506 106.062ZM141.631 91.5L142.506 87H152.444L151.506 91.5H141.631ZM176.051 106.062C174.051 108.854 171.822 111.083 169.364 112.75C166.905 114.417 164.218 115.25 161.301 115.25C159.385 115.25 157.926 114.833 156.926 114C155.968 113.125 155.489 111.854 155.489 110.188C155.489 109.729 155.53 109.167 155.614 108.5C155.739 107.833 155.885 107.167 156.051 106.5L159.926 91.5H155.551L156.051 89.25L170.551 79.8125H172.801L170.301 89.75L166.676 104.25C166.51 105.042 166.385 105.604 166.301 105.938C166.218 106.271 166.176 106.542 166.176 106.75C166.176 107.5 166.593 107.875 167.426 107.875C168.26 107.875 169.155 107.542 170.114 106.875C171.114 106.167 172.364 104.792 173.864 102.75L176.051 106.062ZM167.176 91.5L168.051 87H177.989L177.051 91.5H167.176ZM186.721 115.25C184.68 115.25 183.013 114.542 181.721 113.125C180.43 111.667 179.784 109.833 179.784 107.625C179.784 104.667 180.367 101.896 181.534 99.3125C182.7 96.7292 184.242 94.4792 186.159 92.5625C188.075 90.6042 190.159 89.0833 192.409 88C194.7 86.875 196.95 86.3125 199.159 86.3125C200.575 86.3125 201.784 86.7292 202.784 87.5625C203.825 88.3542 204.846 89.4792 205.846 90.9375L203.034 92.875C202.409 92.375 201.721 92 200.971 91.75C200.221 91.4583 199.45 91.3125 198.659 91.3125C197.492 91.3125 196.409 91.6458 195.409 92.3125C194.45 92.9792 193.596 93.9375 192.846 95.1875C192.138 96.3958 191.596 97.8542 191.221 99.5625C190.846 101.229 190.659 103.083 190.659 105.125C190.659 105.917 190.763 106.542 190.971 107C191.18 107.458 191.492 107.688 191.909 107.688C192.284 107.688 192.93 107.146 193.846 106.062C194.763 104.938 195.784 103.479 196.909 101.688C198.034 99.8542 199.117 97.8542 200.159 95.6875C201.242 93.5208 202.096 91.3542 202.721 89.1875L204.034 88.875L206.096 86.875H213.409C212.659 89.0833 211.93 91.3125 211.221 93.5625C210.555 95.7708 209.971 97.875 209.471 99.875C208.971 101.875 208.575 103.625 208.284 105.125C207.992 106.583 207.846 107.667 207.846 108.375C208.555 107.875 209.305 107.208 210.096 106.375C210.93 105.542 211.763 104.604 212.596 103.562L214.846 106.062C213.805 107.604 212.534 109.083 211.034 110.5C209.534 111.917 207.95 113.062 206.284 113.938C204.659 114.812 203.075 115.25 201.534 115.25C200.367 115.25 199.45 114.917 198.784 114.25C198.117 113.583 197.784 112.667 197.784 111.5C197.784 110.792 197.93 109.792 198.221 108.5C198.513 107.167 198.95 105.5 199.534 103.5C200.117 101.5 200.846 99.1458 201.721 96.4375H202.096C200.846 100.354 199.409 103.729 197.784 106.562C196.2 109.354 194.471 111.5 192.596 113C190.763 114.5 188.805 115.25 186.721 115.25ZM242.266 115.25C240.933 115.25 239.87 114.938 239.079 114.312C238.329 113.646 237.954 112.521 237.954 110.938C237.954 110.271 238.1 109.396 238.391 108.312C238.683 107.188 239.037 105.979 239.454 104.688C239.912 103.354 240.35 102.062 240.766 100.812C241.225 99.5208 241.6 98.375 241.891 97.375C242.183 96.375 242.329 95.6458 242.329 95.1875C242.329 94.3958 242.016 94 241.391 94C240.85 94 240.162 94.3542 239.329 95.0625C238.495 95.7708 237.579 96.7708 236.579 98.0625C235.579 99.3125 234.579 100.812 233.579 102.562C232.62 104.271 231.704 106.167 230.829 108.25C229.995 110.292 229.287 112.458 228.704 114.75H218.641C219.141 113.333 219.683 111.604 220.266 109.562C220.891 107.521 221.495 105.438 222.079 103.312C222.662 101.146 223.141 99.1667 223.516 97.375C223.891 95.5417 224.079 94.1667 224.079 93.25C223.287 93.75 222.495 94.4167 221.704 95.25C220.954 96.0833 220.162 97.1042 219.329 98.3125L217.016 95.5625C218.058 94.0208 219.329 92.5625 220.829 91.1875C222.37 89.7708 223.975 88.625 225.641 87.75C227.308 86.8333 228.912 86.375 230.454 86.375C231.579 86.375 232.475 86.6875 233.141 87.3125C233.85 87.9375 234.204 88.875 234.204 90.125C234.204 90.7083 234.037 91.7292 233.704 93.1875C233.412 94.6458 232.975 96.4167 232.391 98.5C231.808 100.583 231.079 102.875 230.204 105.375H229.829C230.829 102 232.037 99.1042 233.454 96.6875C234.87 94.2708 236.391 92.3125 238.016 90.8125C239.641 89.2708 241.266 88.1458 242.891 87.4375C244.558 86.7292 246.12 86.375 247.579 86.375C249.287 86.375 250.641 86.7708 251.641 87.5625C252.641 88.3125 253.141 89.6042 253.141 91.4375C253.141 92.0625 252.975 92.9583 252.641 94.125C252.35 95.2917 251.975 96.5833 251.516 98C251.1 99.4167 250.662 100.812 250.204 102.188C249.745 103.562 249.35 104.812 249.016 105.938C248.725 107.021 248.579 107.833 248.579 108.375C249.329 107.875 250.1 107.208 250.891 106.375C251.725 105.542 252.558 104.604 253.391 103.562L255.704 106.062C254.662 107.604 253.391 109.083 251.891 110.5C250.391 111.917 248.787 113.062 247.079 113.938C245.412 114.812 243.808 115.25 242.266 115.25ZM281.124 106.062C279.124 108.854 276.895 111.083 274.436 112.75C271.978 114.417 269.29 115.25 266.374 115.25C264.457 115.25 262.999 114.833 261.999 114C261.04 113.125 260.561 111.854 260.561 110.188C260.561 109.729 260.603 109.167 260.686 108.5C260.811 107.833 260.957 107.167 261.124 106.5L264.999 91.5H260.624L261.124 89.25L275.624 79.8125H277.874L275.374 89.75L271.749 104.25C271.582 105.042 271.457 105.604 271.374 105.938C271.29 106.271 271.249 106.542 271.249 106.75C271.249 107.5 271.665 107.875 272.499 107.875C273.332 107.875 274.228 107.542 275.186 106.875C276.186 106.167 277.436 104.792 278.936 102.75L281.124 106.062ZM272.249 91.5L273.124 87H283.061L282.124 91.5H272.249ZM296.544 115.25C292.919 115.25 290.106 114.333 288.106 112.5C286.148 110.667 285.169 108.208 285.169 105.125C285.169 102.5 285.648 100.062 286.606 97.8125C287.606 95.5208 288.94 93.5208 290.606 91.8125C292.273 90.1042 294.169 88.7708 296.294 87.8125C298.46 86.8542 300.71 86.375 303.044 86.375C305.752 86.375 307.794 86.8958 309.169 87.9375C310.585 88.9375 311.294 90.2917 311.294 92C311.294 92.7083 311.127 93.5 310.794 94.375C310.46 95.25 309.752 96.2083 308.669 97.25C307.627 98.25 306.002 99.3542 303.794 100.562C301.585 101.729 298.606 103 294.856 104.375V100.625C296.94 99.7083 298.46 98.7917 299.419 97.875C300.419 96.9583 301.065 96.0208 301.356 95.0625C301.648 94.1042 301.794 93.1667 301.794 92.25C301.794 91.5833 301.648 91.1042 301.356 90.8125C301.106 90.4792 300.794 90.3125 300.419 90.3125C299.794 90.3125 299.106 90.8333 298.356 91.875C297.648 92.9167 297.044 94.3958 296.544 96.3125C296.044 98.2292 295.794 100.5 295.794 103.125C295.794 104.917 296.148 106.208 296.856 107C297.565 107.75 298.502 108.125 299.669 108.125C300.752 108.125 302.085 107.833 303.669 107.25C305.252 106.625 306.773 105.521 308.231 103.938L310.419 107.25C308.252 110.167 305.877 112.229 303.294 113.438C300.752 114.646 298.502 115.25 296.544 115.25Z" fill="white"/>
</svg>
